<svg id="Layer_1" data-name="Layer 1" xmlns="http://www.w3.org/2000/svg" xmlns:xlink="http://www.w3.org/1999/xlink" viewBox="0 0 1005.97 714.94"><defs><clipPath id="clip-path" transform="translate(41.01 39.78)"><path d="M159.33,329.31s-31.08,25.76,17.43,45.09,148.21,5.17,168.67,2.51,97.73-15,170.86-44.57,168.64-77.69,161.82-133-93.6-77.69-93.6-77.69,103.83,19,119.36,62.91,3,94.25-125,163.32C483.34,399.36,391.75,421.39,316,431.49c-31.71,4.23-89.13,8.13-131.09-1.58C136.87,418.79,93.5,381.24,159.33,329.31Zm51.72-80.15v58.22l36.19-6.31v-62.9Zm53.88,49.45,43.95-9.6V162.19l-43.95,8.59ZM326.56,285l49.52-11.2V107.62H326.56Zm67.71-15.65,48.51-12.14v-196H394.27ZM462,251.62l48.5-13.45V10.61H462Zm68.71-21.22,45.48-12.13v-145H530.69ZM177.26,346.23l20.4,4,30.89-40.1-20.34,1.77Zm35.31,6.38,23.49,1.14,26.34-49.27-19.71,2.9Zm42.06,1.14,23.88-1.33,18.37-53.81-19.51,4.17ZM321,348.38l25.77-5.05L351.71,287,332,290.91Zm45.73-7.83,26.52-6.7-5.93-55.05-19.2,4.91Zm48.94-11.43,25.39-6.64-16.29-53.24-22,5.69Zm72.19-20.4,25.9-8.34-29.56-47.5L462,259.71Zm45.86-15.92,23.49-10.11L518.06,242l-19.2,7.33Zm42.44-16.67,21-11.12-45-33.09L534,238.48Zm38.15-20,19.2-11.88L586.78,220l-19.45,6.82Zm98.52,48.19c-5.9-5.91-6.66-22.37-6.66-22.37s-1.9,17.35-7.11,22.56c-4.89,4.89-22.42,7-22.42,7s17.53,1.77,23,7.24c5.18,5.18,6.54,22.29,6.54,22.29s1.07-17.52,6.91-23.37,22.62-6.16,22.62-6.16S719.51,311,712.84,304.36ZM175.92,267.43c-5.9-5.91-6.66-22.37-6.66-22.37s-1.9,17.35-7.11,22.56c-4.89,4.89-22.42,7-22.42,7s17.53,1.77,23,7.24c5.18,5.18,6.54,22.29,6.54,22.29s1.07-17.52,6.91-23.37,22.62-6.16,22.62-6.16S182.59,274.09,175.92,267.43Zm493.7,74.16c-4.32-4.32-4.87-16.36-4.87-16.36s-1.39,12.69-5.2,16.5c-3.58,3.58-16.4,5.1-16.4,5.1S656,348.12,660,352.12c3.78,3.79,4.78,16.31,4.78,16.31s.78-12.82,5.06-17.1,16.53-4.5,16.53-4.5S674.49,346.46,669.62,341.59Zm-612.86,214H72.17V512.21l50.33,42.27a7.38,7.38,0,0,0,12.13-5.65V491.49h-15v41.44L69,491.16a7.45,7.45,0,0,0-12.19,5.75Zm190.29-35.81v5.84a30.66,30.66,0,0,1-30.66,30.66H189a30.66,30.66,0,0,1-30.66-30.66v-5.84a29,29,0,0,1,29-29h30.7A29,29,0,0,1,247.05,519.73Zm-14.4,1.51a17.43,17.43,0,0,0-17.43-17.43h-25a17.43,17.43,0,0,0-17.43,17.43v3.22a19.14,19.14,0,0,0,19.14,19.14h21.61a19.14,19.14,0,0,0,19.13-19.14Zm112,22.36H302.23a19.14,19.14,0,0,1-19.14-19.14v-3.22a17.43,17.43,0,0,1,17.44-17.43h44.13V490.74h-47a29,29,0,0,0-29,29v5.84a30.67,30.67,0,0,0,30.67,30.66h45.3Zm20.06-39.79h30.56v52.42h14.66V503.81h30.31V490.74H364.72Zm189.21-13H535.49L573,550.32a12.67,12.67,0,0,0,21.43,0L632,490.82H614.31l-30.57,47.47Zm-15.15,65.41H520.34L512,542.4h-43.5L460,556.23H442.27l37.54-59.5a12.67,12.67,0,0,1,21.43,0Zm-33.5-25-14.75-24.47-15.11,24.44Zm276.57,25H763.41l-8.33-13.83h-43.5L703,556.23H685.34l37.54-59.5a12.67,12.67,0,0,1,21.43,0Zm-33.5-25L733.6,506.78l-15.11,24.44Zm-98.38,25h16.29V490.82H650Z" style="fill:none"/></clipPath><linearGradient id="linear-gradient" x1="209.45" y1="407.31" x2="754.16" y2="314.82" gradientUnits="userSpaceOnUse"><stop offset="0" stop-color="#df35a4"/><stop offset="0.39" stop-color="#b52a9c"/><stop offset="0.66" stop-color="#44b"/><stop offset="0.97" stop-color="#2293e8"/></linearGradient></defs><g style="clip-path:url(#clip-path)"><rect x="0.5" y="0.5" width="1004.97" height="713.94" style="stroke:#000;stroke-miterlimit:10;fill:url(#linear-gradient)"/></g><path d="M606.48,332C434.13,436,201.7,429.6,151.24,395.37,112.42,369,154.78,333,159,329.57c-65.33,51.8-22,89.24,25.88,100.34,42,9.71,99.38,5.81,131.09,1.58,75.79-10.1,167.38-32.13,262.86-83.62,9.69-5.22,18.7-10.33,27.11-15.35Z" transform="translate(41.01 39.78)" style="fill:#f4f4f4;opacity:0.2"/><path d="M678.11,199.33c6.82,55.32-88.68,103.45-161.82,133q-6.72,2.71-13.47,5.24c173.84-61.47,196.5-114.39,179.07-156.82s-97.38-59.12-97.38-59.12S671.28,144,678.11,199.33Z" transform="translate(41.01 39.78)" style="opacity:0.1"/></svg>